<svg xmlns="http://www.w3.org/2000/svg" width="84" height="88" viewBox="0 0 84 88" fill="none">
  <g clip-path="url(#clip0_51_76)">
    <path d="M82.6727 14.7623L79.6112 61.0247L51.3776 0.135254L82.6727 14.7623ZM62.9432 74.6312L41.853 86.8772L20.4226 74.6312L24.5046 64.0861H58.8612L62.9432 74.6312ZM41.853 23.2664L52.7383 50.4796H30.6276L41.853 23.2664ZM3.75459 61.0247L0.693115 14.7623L31.9882 0.135254L3.75459 61.0247Z" fill="#0C0C0C"/>
    <path d="M82.6727 14.7623L79.6112 61.0247L51.3776 0.135254L82.6727 14.7623ZM62.9432 74.6312L41.853 86.8772L20.4226 74.6312L24.5046 64.0861H58.8612L62.9432 74.6312ZM41.853 23.2664L52.7383 50.4796H30.6276L41.853 23.2664ZM3.75459 61.0247L0.693115 14.7623L31.9882 0.135254L3.75459 61.0247Z" fill="#0C0C0C"/>
  </g>
  <defs>
    <clipPath id="clip0_51_76">
      <rect width="82.3198" height="87.0821" fill="white" transform="translate(0.693115 0.135254)"/>
    </clipPath>
  </defs>
</svg>