<svg xmlns="http://www.w3.org/2000/svg" width="88" height="71" viewBox="0 0 88 71" fill="none">
  <path d="M15.3829 4.32679H71.9863V66.1551H15.3829V4.32679Z" fill="white"/>
  <path fill-rule="evenodd" clip-rule="evenodd" d="M18.6662 0.843506C13.6974 0.843506 10.0208 5.19251 10.1854 9.90889C10.3434 14.44 10.1381 20.3086 8.66077 25.0943C7.17817 29.8935 4.67252 32.9348 0.578979 33.3251V37.7323C4.67252 38.1235 7.17817 41.1632 8.6606 45.9631C10.1381 50.7488 10.3432 56.6174 10.1852 61.1485C10.0206 65.8642 13.6972 70.2139 18.6669 70.2139H69.5805C74.5492 70.2139 78.2252 65.8649 78.0606 61.1485C77.9026 56.6174 78.1079 50.7488 79.5852 45.9631C81.0678 41.1632 83.5673 38.1223 87.661 37.7323V33.3251C83.5675 32.9339 81.068 29.8942 79.5852 25.0943C78.1077 20.3092 77.9026 14.44 78.0606 9.90889C78.2252 5.19319 74.5492 0.843506 69.5805 0.843506H18.6662ZM59.6177 43.5455C59.6177 50.0398 54.7736 53.9784 46.7347 53.9784H33.0502C32.6588 53.9784 32.2833 53.8229 32.0065 53.5461C31.7297 53.2693 31.5742 52.8938 31.5742 52.5024V18.5552C31.5742 18.1637 31.7297 17.7883 32.0065 17.5115C32.2833 17.2347 32.6588 17.0792 33.0502 17.0792H46.6568C53.3599 17.0792 57.7591 20.7101 57.7591 26.2847C57.7591 30.1975 54.7996 33.7003 51.0294 34.314V34.5181C56.1618 35.081 59.6177 38.6358 59.6177 43.5455ZM45.2426 21.758H37.4399V32.7793H44.0117C49.092 32.7793 51.8933 30.7336 51.8933 27.077C51.8928 23.6502 49.4844 21.758 45.2426 21.758ZM37.4399 37.1523V49.298H45.5297C50.8192 49.298 53.621 47.1756 53.621 43.1868C53.621 39.1981 50.7406 37.1516 45.1895 37.1516L37.4399 37.1523Z" fill="#0C0C0C"/>
</svg>