<svg xmlns="http://www.w3.org/2000/svg" width="78" height="88" viewBox="0 0 78 88" fill="none">
  <path d="M77.4654 0L70.4702 78.3648L39.0262 87.0821L7.66877 78.377L0.680908 0H77.4654Z" fill="black"/>
  <path d="M64.4815 73.3747L70.4594 6.40845H39.0732V80.4189L64.4815 73.3747Z" fill="#1E1E1E"/>
  <path d="M16.7004 35.4775L17.562 45.0901H39.0732V35.4775H16.7004Z" fill="white"/>
  <path d="M39.0731 16.0211H39.0399H14.9692L15.8431 25.6338H39.0731V16.0211Z" fill="white"/>
  <path d="M39.0732 70.4434V60.4423L39.031 60.4535L28.3254 57.5628L27.641 49.8962H22.4389H17.9915L19.3382 64.9894L39.0289 70.4557L39.0732 70.4434Z" fill="white"/>
  <path d="M50.8769 45.0898L49.7611 57.5567L39.04 60.4504V70.4511L58.7464 64.9895L58.891 63.3655L61.1499 38.0586L61.3844 35.4773L63.1198 16.0211H39.04V25.6338H52.5852L51.7105 35.4773H39.04V45.0898H50.8769Z" fill="white"/>
</svg>