<svg xmlns="http://www.w3.org/2000/svg" width="101" height="101" viewBox="0 0 101 101" fill="none">
  <path d="M34.0143 100.175C43.2143 100.175 50.681 92.7082 50.681 83.5082V66.8416H34.0143C24.8143 66.8416 17.3477 74.3082 17.3477 83.5082C17.3477 92.7082 24.8143 100.175 34.0143 100.175Z" fill="#0C0C0C"/>
  <path d="M17.3477 50.1747C17.3477 40.9747 24.8143 33.5081 34.0143 33.5081H50.681V66.8413H34.0143C24.8143 66.8413 17.3477 59.3747 17.3477 50.1747Z" fill="#0C0C0C"/>
  <path d="M17.3477 16.8415C17.3477 7.64147 24.8143 0.174805 34.0143 0.174805H50.681V33.5081H34.0143C24.8143 33.5081 17.3477 26.0415 17.3477 16.8415Z" fill="#0C0C0C"/>
  <path d="M50.6809 0.174805H67.3476C76.5476 0.174805 84.0143 7.64147 84.0143 16.8415C84.0143 26.0415 76.5476 33.5081 67.3476 33.5081H50.6809V0.174805Z" fill="#0C0C0C"/>
  <path d="M84.0143 50.1747C84.0143 59.3747 76.5476 66.8413 67.3476 66.8413C58.1476 66.8413 50.6809 59.3747 50.6809 50.1747C50.6809 40.9747 58.1476 33.5081 67.3476 33.5081C76.5476 33.5081 84.0143 40.9747 84.0143 50.1747Z" fill="#0C0C0C"/>
</svg>