<svg xmlns="http://www.w3.org/2000/svg" width="80" height="88" viewBox="0 0 80 88" fill="none">
  <path d="M74.138 43.4044C74.138 38.928 70.5089 35.2989 66.0325 35.2989C65.7443 35.2989 65.4604 35.3144 65.1803 35.344L76.3132 2.50854H29.002L40.1196 35.3153C39.9555 35.3049 39.7912 35.2996 39.6268 35.2992C35.1504 35.2992 31.5213 38.9277 31.5213 43.4047C31.5213 47.023 33.8928 50.0866 37.1655 51.1289C35.4371 54.123 33.2618 56.82 30.7922 59.1501C27.434 62.318 23.5908 64.7203 19.434 66.2004C14.485 63.658 12.1481 58.0039 14.2567 53.0465C14.4948 52.4865 14.738 51.919 14.9703 51.3541C18.5556 50.5173 21.2276 47.3032 21.2276 43.4627C21.2276 38.986 17.5985 35.3572 13.1218 35.3572C8.64513 35.3572 5.01633 38.986 5.01633 43.4627C5.01633 46.2079 6.38195 48.6327 8.46988 50.0989C6.46371 54.6666 3.51463 59.4473 2.59579 64.9878C1.49459 71.6277 2.59208 78.6761 8.33504 82.6567C21.7099 91.9266 36.2282 76.91 51.5358 73.1349C57.0834 71.7672 63.1732 71.9875 68.0608 69.1569C71.7313 67.031 74.1512 63.5077 74.8377 59.5525C75.5165 55.645 74.5273 51.7546 72.2527 48.6C73.473 47.144 74.1406 45.3042 74.138 43.4044Z" fill="#0C0C0C"/>
  <path d="M72.8874 59.2136C72.2913 62.6477 70.1704 65.647 67.0689 67.4437C64.1775 69.1182 60.7128 69.618 57.0442 70.1469C55.0791 70.4301 53.047 70.7236 51.0618 71.2129C45.8129 72.5073 40.7286 75.0327 35.8123 77.4748C25.9728 82.3622 17.4754 86.5825 9.4631 81.0293C3.59394 76.9617 3.86485 69.4357 4.54858 65.3117C5.18234 61.4906 6.89569 57.9717 8.55227 54.5687C8.8345 53.9904 9.11446 53.4109 9.39213 52.8304C10.2272 53.1642 11.1034 53.384 11.9972 53.4839C10.3107 59.0497 12.9629 65.1015 18.5294 67.9611L19.2915 68.3527L20.098 68.0654C24.4988 66.498 28.5541 63.9834 32.1508 60.5897C34.4757 58.3962 36.4747 55.9695 38.1177 53.3765C38.6172 53.4519 39.1217 53.4897 39.6268 53.4897C44.736 53.4897 48.9668 49.6703 49.6215 44.7372C51.7129 44.6607 53.9341 44.6601 56.0374 44.7366C56.6916 49.6703 60.923 53.49 66.0322 53.49C68.1685 53.49 70.15 52.8205 71.7825 51.6832C72.9158 54.0032 73.3388 56.6135 72.8874 59.2136ZM13.1221 37.3368C16.5001 37.3368 19.248 40.085 19.248 43.4629C19.248 44.6761 18.8919 45.8076 18.2807 46.7604C17.2625 48.3484 15.5316 49.437 13.543 49.5728C13.4038 49.582 13.2635 49.5888 13.1221 49.5888C12.3693 49.5888 11.6482 49.4515 10.9815 49.2022C9.63861 48.6972 8.5141 47.7395 7.80189 46.4941C7.27304 45.5715 6.99517 44.5264 6.99597 43.4629C6.99597 40.085 9.74418 37.3368 13.1221 37.3368ZM33.5013 43.4046C33.5013 40.3355 35.77 37.7872 38.7178 37.3466C39.0147 37.3019 39.3183 37.2788 39.6271 37.2788C41.591 37.2788 43.3396 38.209 44.4608 39.6505C44.7417 40.01 44.9816 40.3996 45.176 40.8122C45.5568 41.6234 45.7538 42.5086 45.753 43.4046C45.753 43.8943 45.6938 44.3704 45.5848 44.827C44.9878 47.3262 42.8567 49.2367 40.2452 49.4996C40.0421 49.52 39.836 49.5305 39.6271 49.5305C38.4488 49.5314 37.2956 49.1905 36.3072 48.549C34.6207 47.4564 33.5013 45.5592 33.5013 43.4046ZM59.0689 36.1199C57.7358 37.3923 56.7765 39.0053 56.2948 40.7841C53.9858 40.699 51.6744 40.699 49.3655 40.7841C48.8471 38.8613 47.7727 37.1649 46.3272 35.8764L52.6663 23.0588L59.0689 36.1199ZM31.7632 4.48868H73.5517L63.6817 33.5984C63.257 33.7001 62.8395 33.8295 62.4317 33.9856L52.6817 14.0959L42.9039 33.8669C42.4776 33.7205 42.042 33.6031 41.6 33.5154L31.7632 4.48868ZM72.158 43.4049C72.158 44.0189 72.0664 44.612 71.8976 45.172C71.4972 46.4904 70.6657 47.6362 69.5363 48.4256C68.5099 49.1459 67.2861 49.5319 66.0322 49.5308C63.2037 49.5308 60.8177 47.6033 60.1161 44.993C59.9768 44.4752 59.9062 43.9412 59.9063 43.4049C59.9063 42.5675 60.0754 41.769 60.3808 41.0415C60.5385 40.6692 60.7326 40.3135 60.9603 39.9795C62.0627 38.3522 63.9229 37.2791 66.0322 37.2791C66.2256 37.2791 66.4163 37.2889 66.6054 37.3068C69.7156 37.5966 72.1583 40.2201 72.1583 43.4049H72.158ZM76.1176 43.4049C76.1176 38.4812 72.5699 34.3729 67.8973 33.4954L79.0747 0.528809H26.2409L37.4355 33.562C32.9252 34.5657 29.542 38.5962 29.542 43.4046C29.542 47.0152 31.4501 50.1864 34.3097 51.9686C32.9342 54.018 31.3032 55.9464 29.434 57.71C26.4695 60.5064 23.1672 62.6273 19.6068 64.0229C16.0206 61.7702 14.5047 57.5218 16.0789 53.8211L16.2024 53.5311L16.4338 52.9868C20.3727 51.6129 23.2073 47.864 23.2073 43.4629C23.2073 37.9017 18.6831 33.3775 13.1221 33.3775C7.56122 33.3775 3.0364 37.9017 3.0364 43.4629C3.0364 46.2698 4.19036 48.8116 6.04719 50.6419C5.70088 51.3756 5.34933 52.1069 4.99258 52.8356C3.29465 56.3225 1.37056 60.2747 0.642705 64.6637C-0.802523 73.3801 1.52885 80.348 7.20763 84.2835C10.6535 86.6717 14.153 87.6109 17.6744 87.6109C24.3051 87.6109 31.0128 84.2795 37.5735 81.0206C42.2982 78.6742 47.184 76.2475 52.01 75.0571C53.8057 74.6143 55.6533 74.3477 57.6095 74.0657C61.4888 73.506 65.4999 72.9275 69.0531 70.8698C73.1719 68.4841 75.9911 64.4823 76.7884 59.8911C77.4727 55.9495 76.6492 52.0016 74.6406 48.6533C75.6084 47.0738 76.1197 45.257 76.1176 43.4046V43.4049Z" fill="white"/>
</svg>