<svg xmlns="http://www.w3.org/2000/svg" width="101" height="100" viewBox="0 0 101 100" fill="none">
  <path d="M100.333 0H0.332764V100H100.333V0Z" fill="#0C0C0C"/>
  <path d="M67.5073 78.1254C69.5216 81.4143 72.1422 83.8318 76.7771 83.8318C80.6708 83.8318 83.1581 81.8857 83.1581 79.1969C83.1581 75.9746 80.6025 74.8334 76.3168 72.9588L73.9676 71.9508C67.1866 69.0619 62.6819 65.4429 62.6819 57.7921C62.6819 50.7445 68.0517 45.3794 76.4438 45.3794C82.4184 45.3794 86.7136 47.4588 89.8089 52.9032L82.4914 57.6016C80.8803 54.7127 79.1422 53.5746 76.4438 53.5746C73.6914 53.5746 71.947 55.3207 71.947 57.6016C71.947 60.4207 73.693 61.5619 77.7248 63.308L80.074 64.3143C88.0581 67.7381 92.566 71.2286 92.566 79.0762C92.566 87.5365 85.92 92.1715 76.9946 92.1715C68.2676 92.1715 62.6295 88.0127 59.8708 82.5619L67.5073 78.1254ZM34.312 78.9397C35.7882 81.5588 37.1311 83.773 40.3597 83.773C43.447 83.773 45.3946 82.5651 45.3946 77.8683V45.9159H54.7914V77.9953C54.7914 87.7254 49.0867 92.154 40.7597 92.154C33.2359 92.154 28.8787 88.2603 26.6628 83.5707L34.312 78.9397Z" fill="white"/>
</svg>