<svg xmlns="http://www.w3.org/2000/svg" width="88" height="88" viewBox="0 0 88 88" fill="none">
  <path d="M44.141 51.3537C48.3811 51.3537 51.8183 47.9165 51.8183 43.6764C51.8183 39.4363 48.3811 35.999 44.141 35.999C39.9009 35.999 36.4636 39.4363 36.4636 43.6764C36.4636 47.9165 39.9009 51.3537 44.141 51.3537Z" fill="#0C0C0C"/>
  <path d="M44.1409 59.4055C66.8926 59.4055 85.3365 52.3633 85.3365 43.6762C85.3365 34.9892 66.8926 27.947 44.1409 27.947C21.3892 27.947 2.94531 34.9892 2.94531 43.6762C2.94531 52.3633 21.3892 59.4055 44.1409 59.4055Z" stroke="#0C0C0C" stroke-width="5"/>
  <path d="M30.519 51.5409C41.8949 71.2444 57.2155 83.6962 64.7387 79.3527C72.2619 75.0092 69.1387 55.5152 57.7628 35.8117C46.387 16.1081 31.0663 3.65636 23.5431 7.99986C16.02 12.3434 19.1432 31.8374 30.519 51.5409Z" stroke="#0C0C0C" stroke-width="5"/>
  <path d="M30.519 35.8117C19.1432 55.5152 16.0199 75.0092 23.5431 79.3527C31.0663 83.6962 46.387 71.2445 57.7628 51.5409C69.1387 31.8374 72.2619 12.3434 64.7387 7.99989C57.2155 3.65639 41.8948 16.1082 30.519 35.8117Z" stroke="#0C0C0C" stroke-width="5"/>
</svg>