<svg xmlns="http://www.w3.org/2000/svg" width="88" height="67" viewBox="0 0 88 67" fill="none">
  <path d="M75.6654 38.3856C72.6274 38.4015 69.987 39.1332 67.7761 40.2148C66.9649 38.6083 66.1537 37.1767 66.0105 36.1269C65.8515 34.9022 65.6606 34.1546 65.8515 32.6913C66.0423 31.2279 66.9012 29.1443 66.8853 28.9852C66.8694 28.8261 66.6945 28.0786 64.9448 28.0627C63.1952 28.0468 61.6841 28.3967 61.5092 28.858C61.3342 29.3192 61.0002 30.369 60.7775 31.4506C60.4753 33.0412 57.2782 38.7196 55.449 41.694C54.8605 40.5329 54.3515 39.5149 54.2402 38.7037C54.0811 37.4789 53.8902 36.7314 54.0811 35.268C54.272 33.8047 55.1309 31.721 55.115 31.562C55.0991 31.4029 54.9241 30.6553 53.1745 30.6394C51.4248 30.6235 49.9138 30.9734 49.7388 31.4347C49.5638 31.896 49.373 32.9776 49.0071 34.0274C48.6413 35.0772 44.3944 44.5571 43.281 47.0066C42.7084 48.2631 42.2153 49.2652 41.8654 49.9491C41.8654 49.9491 41.8495 49.9969 41.8018 50.0764C41.4996 50.6649 41.3246 50.983 41.3246 50.983C41.3246 50.983 41.3246 50.983 41.3246 50.9989C41.086 51.4284 40.8315 51.826 40.7043 51.826C40.6088 51.826 40.4339 50.6808 40.7361 49.122C41.3723 45.8295 42.8834 40.7078 42.8675 40.5329C42.8675 40.4374 43.1538 39.5467 41.8813 39.0854C40.6406 38.6242 40.1953 39.3876 40.0839 39.3876C39.9726 39.3876 39.8931 39.658 39.8931 39.658C39.8931 39.658 41.2769 33.9001 37.2527 33.9001C34.7396 33.9001 31.2721 36.6518 29.5542 39.1331C28.4726 39.7217 26.1663 40.9782 23.7009 42.3302C22.7624 42.8551 21.7922 43.38 20.8855 43.8731C20.8219 43.8095 20.7583 43.7299 20.6947 43.6663C15.8275 38.4651 6.82475 34.7908 7.20649 27.8082C7.34964 25.2632 8.22446 18.5828 24.4962 10.4708C37.8889 3.86982 48.5459 5.69899 50.3909 9.75499C53.0313 15.5447 44.6807 26.2971 30.8426 27.8559C25.5619 28.4444 22.7942 26.4084 22.0944 25.645C21.3627 24.8497 21.2514 24.802 20.981 24.961C20.5356 25.1996 20.8219 25.9154 20.981 26.3289C21.3945 27.4105 23.0965 29.3192 25.9754 30.2577C28.5204 31.0848 34.7077 31.546 42.1994 28.6512C50.5818 25.4064 57.135 16.3877 55.2104 8.83245C53.2858 1.16582 40.5611 -1.36322 28.5204 2.91547C21.3627 5.46041 13.6007 9.46869 8.01769 14.6858C1.38494 20.8891 0.335149 26.2812 0.764608 28.5398C2.30748 36.5564 13.3621 41.7735 17.7839 45.6387C17.5612 45.7659 17.3544 45.8772 17.1795 45.9727C14.9686 47.0702 6.53844 51.4761 4.43887 56.1365C2.05298 61.4173 4.82061 65.2029 6.64978 65.7119C12.3282 67.2866 18.1656 64.4553 21.2991 59.779C24.4326 55.1026 24.0508 49.0266 22.6034 46.2431C22.5875 46.2113 22.5716 46.1795 22.5398 46.1476C23.1124 45.8136 23.7009 45.4637 24.2735 45.1297C25.4028 44.4616 26.5162 43.8413 27.4706 43.3323C26.9298 44.8115 26.5321 46.5771 26.3413 49.122C26.1027 52.1123 27.3274 55.9934 28.9339 57.5203C29.6497 58.1884 30.4927 58.2043 31.0335 58.2043C32.9104 58.2043 33.7534 56.6455 34.6918 54.8004C35.8371 52.5418 36.8709 49.9173 36.8709 49.9173C36.8709 49.9173 35.5826 57.0114 39.0819 57.0114C40.3543 57.0114 41.6427 55.3571 42.2153 54.5141C42.2153 54.53 42.2153 54.53 42.2153 54.53C42.2153 54.53 42.2471 54.4823 42.3108 54.371C42.438 54.1642 42.5175 54.037 42.5175 54.037C42.5175 54.037 42.5175 54.0211 42.5175 54.0051C43.0265 53.1144 44.1717 51.0944 45.8737 47.7382C48.0687 43.4118 50.1842 38.0038 50.1842 38.0038C50.1842 38.0038 50.375 39.324 51.0272 41.519C51.4089 42.8074 52.2042 44.223 52.8405 45.5909C52.3315 46.3067 52.0133 46.7043 52.0133 46.7043C52.0133 46.7043 52.0133 46.7043 52.0293 46.7202C51.6157 47.2611 51.1703 47.8496 50.6772 48.4222C48.9435 50.4899 46.8757 52.8599 46.5894 53.5439C46.2554 54.3551 46.3349 54.9436 46.9712 55.4208C47.4325 55.7707 48.2596 55.8184 49.1026 55.7707C50.6613 55.6594 51.7589 55.2776 52.2997 55.039C53.1427 54.7368 54.1288 54.2755 55.0514 53.5916C56.7533 52.335 57.7872 50.5377 57.6917 48.1677C57.644 46.8634 57.2146 45.5591 56.6897 44.3344C56.8487 44.1117 56.9919 43.889 57.1509 43.6663C59.839 39.7376 61.9227 35.4271 61.9227 35.4271C61.9227 35.4271 62.1136 36.7473 62.7657 38.9423C63.0838 40.0557 63.736 41.2645 64.3086 42.4416C61.7796 44.4934 60.2208 46.8793 59.6641 48.4381C58.662 51.333 59.4414 52.6372 60.9206 52.9394C61.5887 53.0826 62.543 52.7645 63.2429 52.4623C64.1336 52.176 65.1834 51.6829 66.1855 50.9512C67.8874 49.6946 69.5257 47.945 69.4303 45.575C69.3826 44.4934 69.0963 43.4277 68.6986 42.3939C70.8459 41.5031 73.6135 41.01 77.1446 41.4236C84.7158 42.3143 86.211 47.0384 85.9247 49.0266C85.6384 51.0148 84.0478 52.0964 83.5229 52.4305C82.998 52.7645 82.823 52.8758 82.8708 53.1144C82.9344 53.4643 83.1889 53.4484 83.6342 53.3848C84.2546 53.2735 87.6107 51.7783 87.7539 48.12C87.9925 43.4436 83.5388 38.3379 75.6654 38.3856ZM17.259 58.077C14.7459 60.8129 11.2466 61.8467 9.73552 60.9719C8.11312 60.0335 8.74936 55.9934 11.8351 53.0985C13.712 51.333 16.1297 49.6946 17.7362 48.6926C18.102 48.4699 18.6428 48.1518 19.295 47.7541C19.4063 47.6905 19.4699 47.6587 19.4699 47.6587C19.5972 47.5792 19.7244 47.4996 19.8517 47.4201C20.981 51.5556 19.8994 55.1981 17.259 58.077ZM35.5508 45.6387C34.6759 47.77 32.8468 53.2258 31.7334 52.9235C30.779 52.669 30.1905 48.5335 31.5425 44.4457C32.2264 42.3939 33.6739 39.9443 34.5169 38.99C35.8848 37.463 37.3958 36.954 37.7617 37.5744C38.2229 38.3856 36.0916 44.3026 35.5508 45.6387ZM50.6454 52.8599C50.2796 53.0508 49.9297 53.178 49.7706 53.0826C49.6593 53.019 49.9297 52.7645 49.9297 52.7645C49.9297 52.7645 51.8225 50.7285 52.57 49.806C52.9995 49.2652 53.5085 48.629 54.0493 47.9132C54.0493 47.9768 54.0493 48.0563 54.0493 48.12C54.0493 50.5536 51.6952 52.1919 50.6454 52.8599ZM62.2885 50.2036C62.0181 50.0128 62.0659 49.3765 62.9725 47.3883C63.3224 46.6089 64.1495 45.3046 65.5651 44.0481C65.7242 44.5571 65.8356 45.0501 65.8196 45.5114C65.8037 48.5812 63.6087 49.7265 62.2885 50.2036Z" fill="#0C0C0C"/>
</svg>