<svg xmlns="http://www.w3.org/2000/svg" width="101" height="100" viewBox="0 0 101 100" fill="none">
  <path d="M0.209717 0H100.21V100H0.209717V0Z" fill="#0C0C0C"/>
  <path d="M48.2254 37.0312H53.0223V45.3125H40.0535V82.1562L39.7098 82.25C39.241 82.375 33.0691 82.375 31.741 82.2344L30.6785 82.1406V45.3125H17.7097V37.0312L21.8191 36.9844C24.0691 36.9531 29.8504 36.9531 34.6629 36.9844C39.4754 37.0156 45.5691 37.0312 48.2254 37.0312ZM84.8348 78.25C82.9286 80.2656 80.8817 81.3906 77.4754 82.3125C75.9911 82.7187 75.7411 82.7344 72.3973 82.7188C69.0536 82.7031 68.7879 82.7031 67.1629 82.2812C62.9598 81.2031 59.5692 79.0937 57.2567 76.1094C56.6004 75.2656 55.5223 73.5156 55.5223 73.2969C55.5223 73.2344 55.6785 73.0937 55.8817 73C56.0848 72.9062 56.5067 72.6406 56.8504 72.4375C57.1942 72.2344 57.8192 71.8594 58.241 71.6406C58.6629 71.4219 59.8817 70.7031 60.9442 70.0625C62.0067 69.4219 62.9754 68.9062 63.0848 68.9062C63.1942 68.9062 63.3973 69.125 63.5535 69.3906C64.491 70.9687 66.6786 72.9844 68.2254 73.6719C69.1786 74.0781 71.2879 74.5312 72.3036 74.5312C73.2411 74.5312 74.9598 74.125 75.8817 73.7031C76.8661 73.25 77.3661 72.7969 77.9598 71.8906C78.3661 71.25 78.4129 71.0781 78.3973 69.8594C78.3973 68.7344 78.3348 68.4219 78.0223 67.9062C77.1473 66.4687 75.9598 65.7187 71.1473 63.5937C66.1786 61.3906 63.9442 60.0781 62.1317 58.3125C60.7879 57 60.5223 56.6406 59.6785 55C58.5848 52.8906 58.4442 52.2031 58.4285 49.0625C58.4129 46.8594 58.4598 46.1406 58.6942 45.3906C59.0223 44.2656 60.0848 42.0937 60.5692 41.5469C61.5692 40.375 61.9285 40.0156 62.6317 39.4375C64.7567 37.6875 68.0692 36.5312 71.2411 36.4219C71.6004 36.4219 72.7879 36.4844 73.8973 36.5625C77.0848 36.8281 79.2567 37.6094 81.3504 39.2812C82.9286 40.5312 85.3192 43.4688 85.0848 43.8594C84.9286 44.0938 78.6942 48.25 78.2879 48.375C78.0379 48.4531 77.8661 48.3594 77.5223 47.9531C75.3973 45.4062 74.5379 44.8594 72.4754 44.7344C71.0067 44.6406 70.2254 44.8125 69.2411 45.4687C68.2098 46.1562 67.7098 47.2031 67.7098 48.6562C67.7254 50.7812 68.5379 51.7812 71.5379 53.2656C73.4754 54.2187 75.1317 55 75.2567 55C75.4442 55 79.4598 57 80.5067 57.625C85.3817 60.4844 87.3661 63.4219 87.8817 68.4844C88.2567 72.2969 87.1786 75.7812 84.8348 78.25Z" fill="white"/>
</svg>