<svg width="17" height="17" viewBox="0 0 17 17" fill="none" xmlns="http://www.w3.org/2000/svg">
<g id="Github Icon" clip-path="url(#clip0_51_149)">
<path id="Vector" fill-rule="evenodd" clip-rule="evenodd" d="M8.60513 0C4.04996 0 0.367554 3.8309 0.367554 8.57024C0.367554 12.3587 2.727 15.5655 6.00018 16.7005C6.40941 16.7858 6.55931 16.5161 6.55931 16.2892C6.55931 16.0905 6.54582 15.4094 6.54582 14.6999C4.25433 15.2108 3.77714 13.6782 3.77714 13.6782C3.40889 12.685 2.86324 12.4297 2.86324 12.4297C2.11324 11.9047 2.91788 11.9047 2.91788 11.9047C3.74983 11.9615 4.18638 12.7844 4.18638 12.7844C4.92272 14.0897 6.10928 13.7209 6.58663 13.4938C6.65475 12.9404 6.87311 12.5573 7.10495 12.3445C5.27732 12.1459 3.35442 11.4081 3.35442 8.11611C3.35442 7.17963 3.68154 6.41345 4.19986 5.81757C4.11809 5.60478 3.83161 4.72489 4.28181 3.54724C4.28181 3.54724 4.97735 3.32017 6.54565 4.42695C7.2171 4.23935 7.90955 4.14392 8.60513 4.14312C9.30068 4.14312 10.0097 4.24255 10.6644 4.42695C12.2329 3.32017 12.9285 3.54724 12.9285 3.54724C13.3787 4.72489 13.092 5.60478 13.0102 5.81757C13.5422 6.41345 13.8558 7.17963 13.8558 8.11611C13.8558 11.4081 11.9329 12.1316 10.0917 12.3445C10.3918 12.6141 10.6508 13.1248 10.6508 13.9337C10.6508 15.0829 10.6373 16.0053 10.6373 16.289C10.6373 16.5161 10.7874 16.7858 11.1964 16.7006C14.4696 15.5653 16.8291 12.3587 16.8291 8.57024C16.8425 3.8309 13.1466 0 8.60513 0Z" fill="#FF003D"/>
</g>
<defs>
<clipPath id="clip0_51_149">
<rect width="16.4615" height="17" fill="white" transform="translate(0.367554)"/>
</clipPath>
</defs>
</svg>
