<svg width="17" height="17" viewBox="0 0 17 17" fill="none" xmlns="http://www.w3.org/2000/svg">
<g id="Vector">
<path id="Vector_2" d="M8.77759 6.95453V10.2464H13.2072C13.0127 11.305 12.429 12.2014 11.5536 12.8041L14.2248 14.9446C15.7812 13.461 16.6791 11.2819 16.6791 8.69325C16.6791 8.09053 16.6267 7.51093 16.5294 6.95462L8.77759 6.95453Z" fill="#FF003D"/>
<path id="Vector_3" d="M4.16483 10.1179L3.56236 10.5941L1.42981 12.3096C2.78414 15.0836 5.55995 17 8.77741 17C10.9997 17 12.8628 16.2427 14.2246 14.9446L11.5534 12.8041C10.8201 13.3141 9.88477 13.6232 8.77741 13.6232C6.63742 13.6232 4.81922 12.1319 4.16819 10.1228L4.16483 10.1179Z" fill="#FF003D"/>
<path id="Vector_4" d="M1.42987 4.69043C0.868712 5.83402 0.546997 7.12449 0.546997 8.49992C0.546997 9.87535 0.868712 11.1658 1.42987 12.3094C1.42987 12.3171 4.16852 10.1149 4.16852 10.1149C4.0039 9.60488 3.9066 9.064 3.9066 8.49983C3.9066 7.93567 4.0039 7.39479 4.16852 6.8848L1.42987 4.69043Z" fill="#FF003D"/>
<path id="Vector_5" d="M8.77758 3.38454C9.98976 3.38454 11.0672 3.81726 11.9277 4.65182L14.2847 2.21776C12.8555 0.842325 10.9999 0 8.77758 0C5.56012 0 2.78414 1.90863 1.42981 4.69046L4.16837 6.88501C4.81931 4.8759 6.63759 3.38454 8.77758 3.38454Z" fill="#FF003D"/>
</g>
</svg>
