<svg width="17" height="17" viewBox="0 0 17 17" fill="none" xmlns="http://www.w3.org/2000/svg">
<g id="Instagram Icon" clip-path="url(#clip0_51_148)">
<path id="Vector" d="M8.41876 1.53066C10.6179 1.53066 10.8783 1.54062 11.7432 1.58047C12.547 1.61699 12.981 1.75645 13.2704 1.87266C13.653 2.02539 13.9295 2.21133 14.2157 2.50684C14.505 2.80566 14.6819 3.08789 14.8298 3.48301C14.9423 3.78184 15.0773 4.2334 15.1127 5.06016C15.1513 5.95664 15.1609 6.22559 15.1609 8.49336C15.1609 10.7645 15.1513 11.0334 15.1127 11.9266C15.0773 12.7566 14.9423 13.2049 14.8298 13.5037C14.6819 13.8988 14.5018 14.1844 14.2157 14.4799C13.9263 14.7787 13.653 14.9613 13.2704 15.1141C12.981 15.2303 12.5438 15.3697 11.7432 15.4062C10.8751 15.4461 10.6147 15.4561 8.41876 15.4561C6.2196 15.4561 5.95917 15.4461 5.0943 15.4062C4.29051 15.3697 3.85647 15.2303 3.56711 15.1141C3.1845 14.9613 2.908 14.7754 2.62185 14.4799C2.33249 14.1811 2.15566 13.8988 2.00776 13.5037C1.89523 13.2049 1.76019 12.7533 1.72483 11.9266C1.68625 11.0301 1.6766 10.7611 1.6766 8.49336C1.6766 6.22227 1.68625 5.95332 1.72483 5.06016C1.76019 4.23008 1.89523 3.78184 2.00776 3.48301C2.15566 3.08789 2.3357 2.80234 2.62185 2.50684C2.91122 2.20801 3.1845 2.02539 3.56711 1.87266C3.85647 1.75645 4.29373 1.61699 5.0943 1.58047C5.95917 1.54062 6.2196 1.53066 8.41876 1.53066ZM8.41876 0C6.18423 0 5.90452 0.00996094 5.02678 0.0498047C4.15226 0.0896484 3.55103 0.235742 3.03018 0.444922C2.48682 0.664062 2.02705 0.95293 1.5705 1.42773C1.11073 1.89922 0.831017 2.37402 0.618818 2.93184C0.416264 3.47305 0.274797 4.09062 0.236215 4.99375C0.197634 5.90352 0.187988 6.19238 0.187988 8.5C0.187988 10.8076 0.197634 11.0965 0.236215 12.0029C0.274797 12.9061 0.416264 13.527 0.618818 14.0648C0.831017 14.626 1.11073 15.1008 1.5705 15.5723C2.02705 16.0437 2.48682 16.3359 3.02696 16.5518C3.55103 16.7609 4.14905 16.907 5.02357 16.9469C5.9013 16.9867 6.18102 16.9967 8.41554 16.9967C10.6501 16.9967 10.9298 16.9867 11.8075 16.9469C12.682 16.907 13.2833 16.7609 13.8041 16.5518C14.3443 16.3359 14.804 16.0437 15.2606 15.5723C15.7171 15.1008 16.0001 14.626 16.2091 14.0682C16.4116 13.527 16.5531 12.9094 16.5917 12.0063C16.6302 11.0998 16.6399 10.8109 16.6399 8.50332C16.6399 6.1957 16.6302 5.90684 16.5917 5.00039C16.5531 4.09727 16.4116 3.47637 16.2091 2.93848C16.0065 2.37402 15.7268 1.89922 15.267 1.42773C14.8105 0.95625 14.3507 0.664062 13.8106 0.448242C13.2865 0.239062 12.6885 0.0929688 11.814 0.053125C10.933 0.00996094 10.6533 0 8.41876 0Z" fill="#FF003D"/>
<path id="Vector_2" d="M8.41871 4.13379C6.08452 4.13379 4.1908 6.08945 4.1908 8.5C4.1908 10.9105 6.08452 12.8662 8.41871 12.8662C10.7529 12.8662 12.6466 10.9105 12.6466 8.5C12.6466 6.08945 10.7529 4.13379 8.41871 4.13379ZM8.41871 11.3322C6.90438 11.3322 5.67619 10.0639 5.67619 8.5C5.67619 6.93613 6.90438 5.66777 8.41871 5.66777C9.93304 5.66777 11.1612 6.93613 11.1612 8.5C11.1612 10.0639 9.93304 11.3322 8.41871 11.3322Z" fill="#FF003D"/>
<path id="Vector_3" d="M13.8009 3.96111C13.8009 4.52556 13.3572 4.98045 12.8138 4.98045C12.2673 4.98045 11.8268 4.52224 11.8268 3.96111C11.8268 3.39666 12.2705 2.94177 12.8138 2.94177C13.3572 2.94177 13.8009 3.39998 13.8009 3.96111Z" fill="#FF003D"/>
</g>
<defs>
<clipPath id="clip0_51_148">
<rect width="16.4615" height="17" fill="white" transform="translate(0.187988)"/>
</clipPath>
</defs>
</svg>
