<svg width="17" height="17" viewBox="0 0 17 17" fill="none" xmlns="http://www.w3.org/2000/svg">
<g id="Linkedin Icon" clip-path="url(#clip0_51_147)">
<path id="Vector" d="M15.2515 0H1.22387C0.551904 0 0.00854492 0.547852 0.00854492 1.2252V15.7715C0.00854492 16.4488 0.551904 17 1.22387 17H15.2515C15.9235 17 16.4701 16.4488 16.4701 15.7748V1.2252C16.4701 0.547852 15.9235 0 15.2515 0ZM4.89235 14.4865H2.44884V6.37168H4.89235V14.4865ZM3.67059 5.26602C2.8861 5.26602 2.25272 4.61191 2.25272 3.80508C2.25272 2.99824 2.8861 2.34414 3.67059 2.34414C4.45187 2.34414 5.08526 2.99824 5.08526 3.80508C5.08526 4.60859 4.45187 5.26602 3.67059 5.26602ZM14.0362 14.4865H11.5959V10.542C11.5959 9.60234 11.5798 8.39043 10.3259 8.39043C9.05596 8.39043 8.86305 9.41641 8.86305 10.4756V14.4865H6.42597V6.37168H8.7666V7.48066H8.79875C9.12348 6.84316 9.92084 6.16914 11.1072 6.16914C13.5797 6.16914 14.0362 7.84922 14.0362 10.034V14.4865Z" fill="#FF003D"/>
</g>
<defs>
<clipPath id="clip0_51_147">
<rect width="16.4615" height="17" fill="white" transform="translate(0.00854492)"/>
</clipPath>
</defs>
</svg>
